<?xml version="1.0" encoding="UTF-8" standalone="no"?><!DOCTYPE svg PUBLIC "-//W3C//DTD SVG 1.1//EN" "http://www.w3.org/Graphics/SVG/1.1/DTD/svg11.dtd"><svg width="100%" height="100%" viewBox="0 0 120 120" version="1.1" xmlns="http://www.w3.org/2000/svg" xmlns:xlink="http://www.w3.org/1999/xlink" xml:space="preserve" xmlns:serif="http://www.serif.com/" style="fill-rule:evenodd;clip-rule:evenodd;stroke-linejoin:round;stroke-miterlimit:1.41421;"><rect x="0" y="0" width="119.659" height="119.659" style="fill:none;"/><path d="M95.236,12.601c0,-0.796 -0.316,-1.559 -0.878,-2.122c-0.563,-0.562 -1.326,-0.878 -2.122,-0.878c-11.572,0 -53.241,0 -64.813,0c-0.796,0 -1.559,0.316 -2.121,0.878c-0.563,0.563 -0.879,1.326 -0.879,2.122c0,14.774 0,79.683 0,94.458c0,0.795 0.316,1.558 0.879,2.121c0.562,0.563 1.325,0.879 2.121,0.879c11.572,0 53.241,0 64.813,0c0.796,0 1.559,-0.316 2.122,-0.879c0.562,-0.563 0.878,-1.326 0.878,-2.121c0,-14.775 0,-79.684 0,-94.458Zm-35.406,82.235c3.818,0 6.918,3.1 6.918,6.918c0,3.819 -3.1,6.919 -6.918,6.919c-3.819,0 -6.919,-3.1 -6.919,-6.919c0,-3.818 3.1,-6.918 6.919,-6.918Zm0,2.659c2.351,0 4.259,1.908 4.259,4.259c0,2.351 -1.908,4.26 -4.259,4.26c-2.351,0 -4.26,-1.909 -4.26,-4.26c0,-2.351 1.909,-4.259 4.26,-4.259Zm30.145,-78.866l-60.291,0l0,75.045l60.291,0l0,-75.045Zm-30.145,-5.924c0.837,0 1.517,0.68 1.517,1.517c0,0.838 -0.68,1.518 -1.517,1.518c-0.838,0 -1.518,-0.68 -1.518,-1.518c0,-0.837 0.68,-1.517 1.518,-1.517Z"/><g><g><rect x="40.738" y="45.083" width="3.319" height="22.136"/><rect x="54.057" y="45.083" width="3.319" height="22.136"/><rect x="59.133" y="45.083" width="3.319" height="22.136"/><rect x="75.602" y="45.083" width="3.319" height="22.136"/><rect x="46.032" y="45.083" width="6.269" height="22.136"/><rect x="64.647" y="45.083" width="8.094" height="22.136"/></g><g><path d="M38.562,41.383c-0.669,0 -1.211,0.542 -1.211,1.21l0,7.03l-2.421,0c0,0 0,-5.095 0,-8.24c0,-1.337 1.084,-2.421 2.421,-2.421l8.24,0l0,2.421l-7.029,0Z"/><path d="M81.097,41.383c0.669,0 1.211,0.542 1.211,1.21l0,7.03l2.421,0c0,0 0,-5.095 0,-8.24c0,-1.337 -1.084,-2.421 -2.421,-2.421l-8.24,0l0,2.421l7.029,0Z"/><path d="M38.562,70.92c-0.669,0 -1.211,-0.542 -1.211,-1.21l0,-7.03l-2.421,0c0,0 0,5.095 0,8.24c0,1.337 1.084,2.421 2.421,2.421l8.24,0l0,-2.421l-7.029,0Z"/><path d="M81.097,70.92c0.669,0 1.211,-0.542 1.211,-1.21l0,-7.03l2.421,0c0,0 0,5.095 0,8.24c0,1.337 -1.084,2.421 -2.421,2.421l-8.24,0l0,-2.421l7.029,0Z"/></g></g></svg>