<?xml version="1.0" encoding="UTF-8" standalone="no"?><!DOCTYPE svg PUBLIC "-//W3C//DTD SVG 1.1//EN" "http://www.w3.org/Graphics/SVG/1.1/DTD/svg11.dtd"><svg width="100%" height="100%" viewBox="0 0 120 120" version="1.1" xmlns="http://www.w3.org/2000/svg" xmlns:xlink="http://www.w3.org/1999/xlink" xml:space="preserve" xmlns:serif="http://www.serif.com/" style="fill-rule:evenodd;clip-rule:evenodd;stroke-linejoin:round;stroke-miterlimit:1.41421;"><g><rect x="0" y="0" width="119.659" height="119.659" style="fill:none;"/><path d="M25.566,77.146l26.867,-46.534l14.664,8.466l-26.867,46.535l-14.916,8.904l0.252,-17.371Z" style="fill:#808080;"/><path d="M56.893,44.54l-3.05,-1.762l-17.9,4.797l0.644,2.406l20.306,-5.441Z" style="fill:#fff;"/><path d="M66.387,49.078l-0.645,-2.406l-35.538,9.522l0.645,2.406l35.538,-9.522Z" style="fill:#fff;"/><path d="M61.896,57.363l-0.644,-2.406l-35.538,9.523l0.645,2.405l35.537,-9.522Z" style="fill:#fff;"/><path d="M57.141,65.72l-0.645,-2.406l-35.538,9.522l0.645,2.406l35.538,-9.522Z" style="fill:#fff;"/><path d="M51.875,74.212l-0.644,-2.406l-35.538,9.523l0.645,2.406l35.537,-9.523Z" style="fill:#fff;"/><path d="M48.43,82.218l-0.645,-2.406l-35.538,9.522l0.645,2.406l35.538,-9.522Z" style="fill:#fff;"/><path d="M81.684,40.228c0.78,-1.349 0.704,-3.029 -0.193,-4.303c-7.99,-11.218 -19.263,-17.595 -33.466,-19.273c-1.581,-0.18 -3.119,0.595 -3.915,1.973c-1.302,2.243 -3.115,5.383 -3.115,5.383l37.54,21.674c0,0 1.85,-3.204 3.149,-5.454Z" style="fill:#808080;"/><path d="M68.046,23.265c-0.619,-0.726 -1.405,-1.204 -2.393,-1.382l-4.819,8.346l2.394,1.382l4.818,-8.346Z" style="fill:#fff;"/><path d="M76.42,61.623l17.554,4.374l4.99,17.389l-12.565,13.016l-17.554,-4.374l-4.99,-17.389l12.565,-13.016Z" style="fill:#808080;"/><circle cx="81.409" cy="79.029" r="7.222" style="fill:#fff;"/></g></svg>