<?xml version="1.0" encoding="UTF-8" standalone="no"?><!DOCTYPE svg PUBLIC "-//W3C//DTD SVG 1.1//EN" "http://www.w3.org/Graphics/SVG/1.1/DTD/svg11.dtd"><svg width="100%" height="100%" viewBox="0 0 120 120" version="1.1" xmlns="http://www.w3.org/2000/svg" xmlns:xlink="http://www.w3.org/1999/xlink" xml:space="preserve" xmlns:serif="http://www.serif.com/" style="fill-rule:evenodd;clip-rule:evenodd;stroke-linecap:round;stroke-linejoin:round;stroke-miterlimit:4.5;"><g><rect x="0" y="0" width="119.659" height="119.659" style="fill:none;"/><path d="M43.879,10.571l0,19.353l31.901,0l0,-19.353" style="fill:none;stroke:#6f6f6e;stroke-width:4.5px;"/><path d="M63.802,72.915l0,1.411c0,1.843 -1.496,3.338 -3.339,3.339l-1.267,0c-0.945,0 -1.799,-0.394 -2.407,-1.026c0.4,-0.403 0.902,-0.807 1.532,-1.168c1.71,-0.98 3.386,-1.475 4.215,-1.865c0.349,-0.165 0.799,-0.415 1.266,-0.691Zm0,-6.28l0,3.998c-0.626,0.435 -1.244,0.824 -1.667,0.993c-1.486,0.593 -2.938,0.914 -4.199,1.717c-0.665,0.423 -1.379,0.95 -2.043,1.471c-0.024,-0.159 -0.036,-0.322 -0.036,-0.488l0,-3.209c0.447,-0.539 1.068,-1.11 1.925,-1.6c1.71,-0.98 3.386,-1.475 4.215,-1.866c0.483,-0.227 1.156,-0.619 1.805,-1.016Zm0,-6.419l0,4.079c-0.792,0.575 -1.661,1.158 -2.207,1.376c-1.486,0.593 -2.937,0.914 -4.199,1.717c-0.499,0.318 -1.026,0.694 -1.539,1.083l0,-3.775c0.447,-0.538 1.067,-1.107 1.921,-1.596c1.71,-0.98 3.386,-1.475 4.216,-1.865c0.483,-0.228 1.158,-0.621 1.808,-1.019Zm-3.339,-6.288c1.843,0 3.339,1.496 3.339,3.338l0,0.61c-0.793,0.576 -1.664,1.16 -2.21,1.379c-1.486,0.593 -2.938,0.914 -4.199,1.717c-0.498,0.317 -1.024,0.692 -1.536,1.079l0,-4.785c0,-1.842 1.496,-3.338 3.339,-3.338l1.267,0Z" style="fill:#6f6f6e;"/><path d="M51.854,54.861l-7.975,-24.544l31.901,0l-7.975,24.544l-15.951,0Z" style="fill:none;stroke:#6f6f6e;stroke-width:4.5px;"/><path d="M103.816,89.256c0,0 0,6.214 0,9.605c0,0.569 -0.226,1.116 -0.629,1.518c-0.403,0.403 -0.949,0.629 -1.518,0.629c-12.093,0 -71.586,0 -83.678,0c-0.57,0 -1.116,-0.226 -1.519,-0.629c-0.402,-0.402 -0.629,-0.949 -0.629,-1.518c0,-2.45 0,-6.435 0,-8.885c0,-1.186 0.962,-2.147 2.147,-2.148c10.223,0 53.47,0 53.47,0c0,0 0,-7.297 0,-11.032c0,-0.569 0.227,-1.116 0.629,-1.518c0.403,-0.403 0.949,-0.629 1.519,-0.629c5.878,0 22.183,0 28.061,0c1.185,0 2.147,0.961 2.147,2.147c0,4.06 0,12.46 0,12.46Z" style="fill:#6f6f6e;"/></g></svg>