<?xml version="1.0" encoding="UTF-8" standalone="no"?><!DOCTYPE svg PUBLIC "-//W3C//DTD SVG 1.1//EN" "http://www.w3.org/Graphics/SVG/1.1/DTD/svg11.dtd"><svg width="100%" height="100%" viewBox="0 0 120 120" version="1.1" xmlns="http://www.w3.org/2000/svg" xmlns:xlink="http://www.w3.org/1999/xlink" xml:space="preserve" xmlns:serif="http://www.serif.com/" style="fill-rule:evenodd;clip-rule:evenodd;stroke-linejoin:round;stroke-miterlimit:1.41421;"><rect x="0" y="0" width="119.659" height="119.659" style="fill:none;"/><circle cx="31.4" cy="98.261" r="6.408"/><circle cx="88.259" cy="98.261" r="6.408"/><path d="M22.977,61.414c0.001,-1.657 1.344,-3 3,-3c11.911,0 55.794,0 67.705,0c1.656,0 3,1.343 3,3c0,8.128 0,29.967 0,29.967l-2.942,0c-1.504,-1.2 -3.409,-1.918 -5.481,-1.918c-2.072,0 -3.977,0.718 -5.481,1.918l-2.942,0l0,-15.511l-40.013,0l0,15.511l-2.942,0c-1.504,-1.2 -3.409,-1.918 -5.481,-1.918c-2.072,0 -3.977,0.718 -5.481,1.918l-2.942,0c0,0 0,-21.839 0,-29.967Z"/><g><path d="M83.921,41.64c0.492,0 0.891,-0.399 0.891,-0.891l0,-1.781c0,-0.492 -0.399,-0.891 -0.891,-0.891l-49.569,0c-0.492,0 -0.891,0.399 -0.891,0.891l0,1.781c0,0.492 0.399,0.891 0.891,0.891l49.569,0Z"/><path d="M90.194,50.821c0.491,0 0.89,-0.399 0.89,-0.891l0,-1.781c0,-0.491 -0.399,-0.891 -0.89,-0.891l-62.115,0c-0.491,0 -0.89,0.4 -0.89,0.891l0,1.781c0,0.492 0.399,0.891 0.89,0.891l62.115,0Z"/><path d="M91.58,32.459c0.491,0 0.89,-0.399 0.89,-0.891l0,-1.781c0,-0.492 -0.399,-0.891 -0.89,-0.891l-63.501,0c-0.491,0 -0.89,0.399 -0.89,0.891l0,1.781c0,0.492 0.399,0.891 0.89,0.891l63.501,0Z"/></g></svg>