<?xml version="1.0" encoding="UTF-8" standalone="no"?><!DOCTYPE svg PUBLIC "-//W3C//DTD SVG 1.1//EN" "http://www.w3.org/Graphics/SVG/1.1/DTD/svg11.dtd"><svg width="100%" height="100%" viewBox="0 0 120 120" version="1.1" xmlns="http://www.w3.org/2000/svg" xmlns:xlink="http://www.w3.org/1999/xlink" xml:space="preserve" xmlns:serif="http://www.serif.com/" style="fill-rule:evenodd;clip-rule:evenodd;stroke-linejoin:round;stroke-miterlimit:1.41421;"><rect x="0" y="0" width="119.659" height="119.659" style="fill:none;"/><g><path d="M36.053,43.475c0,-3.086 -2.506,-5.592 -5.593,-5.592c-3.086,0 -5.592,2.506 -5.592,5.592l0,16.664c0,3.087 2.506,5.593 5.592,5.593c3.087,0 5.593,-2.506 5.593,-5.593l0,-16.664Z" style="fill:#6f6f6e;"/><path d="M48.718,24.083c0,-3.145 -2.554,-5.698 -5.699,-5.698c-3.145,0 -5.699,2.553 -5.699,5.698l0,45.064c0,3.145 2.554,5.698 5.699,5.698c3.145,0 5.699,-2.553 5.699,-5.698l0,-45.064Z" style="fill:#6f6f6e;"/><path d="M61.382,17.751c0,-3.145 -2.553,-5.699 -5.699,-5.699c-3.145,0 -5.698,2.554 -5.698,5.699l0,57.728c0,3.145 2.553,5.699 5.698,5.699c3.146,0 5.699,-2.554 5.699,-5.699l0,-57.728Z" style="fill:#6f6f6e;"/><path d="M74.047,24.083c0,-3.145 -2.554,-5.698 -5.699,-5.698c-3.145,0 -5.699,2.553 -5.699,5.698l0,49.616c0,3.145 2.554,5.698 5.699,5.698c3.145,0 5.699,-2.553 5.699,-5.698l0,-49.616Z" style="fill:#6f6f6e;"/><path d="M93.692,57.786c1.969,-2.887 1.222,-6.83 -1.665,-8.799c-2.888,-1.968 -6.831,-1.222 -8.799,1.666l-23.735,25.177c-1.968,2.887 -5.628,14.087 -2.74,16.056c2.888,1.968 10.485,6.873 13.415,6.913c0.754,-0.381 4.4,-3.729 3.879,-3.413c0,0 -0.313,-6.269 0,-8.656c0.451,-3.445 19.645,-28.944 19.645,-28.944Z" style="fill:#6f6f6e;"/><path d="M72.752,58.217l-47.819,0c-0.73,13.013 7.631,37.034 7.631,37.034c0,0 -6.83,10.838 -3.947,11.34c7.161,1.247 39.654,1.34 47.304,0.309c2.096,-0.282 -1.824,-11.514 -1.824,-11.514l-1.345,-37.169Z" style="fill:#6f6f6e;"/></g></svg>