<?xml version="1.0" encoding="UTF-8" standalone="no"?><!DOCTYPE svg PUBLIC "-//W3C//DTD SVG 1.1//EN" "http://www.w3.org/Graphics/SVG/1.1/DTD/svg11.dtd"><svg width="100%" height="100%" viewBox="0 0 120 120" version="1.1" xmlns="http://www.w3.org/2000/svg" xmlns:xlink="http://www.w3.org/1999/xlink" xml:space="preserve" xmlns:serif="http://www.serif.com/" style="fill-rule:evenodd;clip-rule:evenodd;stroke-linecap:round;stroke-linejoin:round;stroke-miterlimit:1.5;"><g><rect x="0" y="0" width="119.659" height="119.659" style="fill:none;"/><g><circle cx="59.716" cy="64" r="0.36" style="fill:#fff;"/><path d="M97.414,49.782c1.963,0 3.557,1.594 3.557,3.557l0,7.113c0,1.963 -1.594,3.556 -3.557,3.556l-75.397,0c-1.962,0 -3.556,-1.593 -3.556,-3.556l0,-7.113c0,-1.963 1.594,-3.557 3.556,-3.557l75.397,0Zm-3.271,7.113l-37.932,0c-0.499,0 -0.904,0.405 -0.904,0.903l0,1.807c0,0.498 0.405,0.903 0.904,0.903l37.932,0c0.499,0 0.903,-0.405 0.903,-0.903l0,-1.807c0,-0.498 -0.404,-0.903 -0.903,-0.903Z" style="fill:#6f6f6e;stroke:#fff;stroke-width:2px;"/><rect x="56.343" y="57.798" width="37.7" height="1.785" style="fill:#6f6f6e;"/><path d="M107.921,63.156c0.927,0 1.68,0.753 1.68,1.68l0,3.36c0,0.928 -0.753,1.681 -1.68,1.681l-96.183,0c-0.927,0 -1.68,-0.753 -1.68,-1.681l0,-3.36c0,-0.927 0.753,-1.68 1.68,-1.68l6.927,0c0.618,1.05 1.761,1.755 3.067,1.755l76.688,0c1.306,0 2.448,-0.705 3.067,-1.755l6.434,0Z" style="fill:#6f6f6e;"/></g></g></svg>