<?xml version="1.0" encoding="UTF-8" standalone="no"?><!DOCTYPE svg PUBLIC "-//W3C//DTD SVG 1.1//EN" "http://www.w3.org/Graphics/SVG/1.1/DTD/svg11.dtd"><svg width="100%" height="100%" viewBox="0 0 120 120" version="1.1" xmlns="http://www.w3.org/2000/svg" xmlns:xlink="http://www.w3.org/1999/xlink" xml:space="preserve" xmlns:serif="http://www.serif.com/" style="fill-rule:evenodd;clip-rule:evenodd;stroke-linejoin:round;stroke-miterlimit:1.41421;"><g><rect x="0" y="0" width="119.659" height="119.659" style="fill:none;"/><path d="M96.275,17.469c3.264,0 5.915,2.651 5.915,5.915l0,72.891c0,3.264 -2.651,5.915 -5.915,5.915l-72.891,0c-3.264,0 -5.915,-2.651 -5.915,-5.915l0,-72.891c0,-3.264 2.651,-5.915 5.915,-5.915l72.891,0Zm-61.792,30.757l0,-21.238c0,-1.228 -0.998,-2.226 -2.227,-2.226c-1.228,0 -2.226,0.998 -2.226,2.226l0,21.238l-1.751,0c-1.763,0 -3.193,1.431 -3.193,3.193l0,2.547c0,1.762 1.43,3.193 3.193,3.193l1.751,0l0,35.536c0,1.229 0.998,2.226 2.226,2.226c1.229,0 2.227,-0.997 2.227,-2.226l0,-35.536l1.751,0c1.763,0 3.193,-1.431 3.193,-3.193l0,-2.547c0,-1.762 -1.43,-3.193 -3.193,-3.193l-1.751,0Zm18.373,13.372l0,-34.61c0,-1.228 -0.997,-2.226 -2.226,-2.226c-1.229,0 -2.226,0.998 -2.226,2.226l0,34.61l-1.735,0c-1.762,0 -3.193,1.431 -3.193,3.193l0,2.547c0,1.762 1.431,3.193 3.193,3.193l1.735,0l0,22.164c0,1.229 0.997,2.226 2.226,2.226c1.229,0 2.226,-0.997 2.226,-2.226l0,-22.164l1.769,0c1.762,0 3.193,-1.431 3.193,-3.193l0,-2.547c0,-1.762 -1.431,-3.193 -3.193,-3.193l-1.769,0Zm18.391,-7.074l0,-27.536c0,-1.228 -0.998,-2.226 -2.226,-2.226c-1.229,0 -2.227,0.998 -2.227,2.226l0,27.536l-1.751,0c-1.763,0 -3.193,1.431 -3.193,3.193l0,2.547c0,1.762 1.43,3.193 3.193,3.193l1.751,0l0,29.238c0,1.229 0.998,2.226 2.227,2.226c1.228,0 2.226,-0.997 2.226,-2.226l0,-29.238l1.751,0c1.763,0 3.193,-1.431 3.193,-3.193l0,-2.547c0,-1.762 -1.43,-3.193 -3.193,-3.193l-1.751,0Zm18.391,-20.72l0,-6.816c0,-1.228 -0.998,-2.226 -2.227,-2.226c-1.228,0 -2.226,0.998 -2.226,2.226l0,6.816l-1.76,0c-1.762,0 -3.193,1.43 -3.193,3.192l0,2.548c0,1.762 1.431,3.193 3.193,3.193l1.76,0l0,49.958c0,1.229 0.998,2.226 2.226,2.226c1.229,0 2.227,-0.997 2.227,-2.226l0,-49.958l1.743,0c1.762,0 3.192,-1.431 3.192,-3.193l0,-2.548c0,-1.762 -1.43,-3.192 -3.192,-3.192l-1.743,0Z" style="fill:#808080;stroke:#808080;stroke-width:0.95px;"/></g></svg>