<?xml version="1.0" encoding="UTF-8" standalone="no"?><!DOCTYPE svg PUBLIC "-//W3C//DTD SVG 1.1//EN" "http://www.w3.org/Graphics/SVG/1.1/DTD/svg11.dtd"><svg width="100%" height="100%" viewBox="0 0 120 120" version="1.1" xmlns="http://www.w3.org/2000/svg" xmlns:xlink="http://www.w3.org/1999/xlink" xml:space="preserve" xmlns:serif="http://www.serif.com/" style="fill-rule:evenodd;clip-rule:evenodd;stroke-linejoin:round;stroke-miterlimit:1.41421;"><g><path d="M82.063,80.648c1.997,0 3.619,-1.621 3.619,-3.618l0,-32.333c0,-1.997 -1.622,-3.618 -3.619,-3.618l-15.658,0c-1.997,0 -4.375,2.02 -3.618,3.618c2.066,4.362 13.002,7.376 0,32.333c0.083,2.018 1.621,3.618 3.618,3.618l15.658,0Z" style="fill:#6f6f6e;"/><path d="M89.232,85.82c0,-1.65 -1.339,-2.989 -2.989,-2.989l-25.222,0c-1.65,0 -2.99,1.339 -2.99,2.989l0,12.937c0,1.65 1.34,2.99 2.99,2.99l25.222,0c1.65,0 2.989,-1.34 2.989,-2.99l0,-12.937Z" style="fill:#6f6f6e;"/><path d="M85.682,21.6c0,-1.792 -1.455,-3.247 -3.247,-3.247l-29.026,0c-1.792,0 -3.247,1.455 -3.247,3.247l0,14.05c0,1.792 1.455,3.247 3.247,3.247l29.026,0c1.792,0 3.247,-1.455 3.247,-3.247l0,-14.05Z" style="fill:#6f6f6e;"/><path d="M36.199,21.713c-1.446,0.466 -2.426,1.812 -2.426,3.331c0,2.088 0,5.03 0,7.127c0,1.54 0.993,2.904 2.458,3.376c2.729,0.88 7.087,2.286 9.658,3.116c0.487,0.157 1.019,0.071 1.433,-0.23c0.413,-0.301 0.658,-0.782 0.658,-1.293c0,-4.129 0,-12.999 0,-17.085c0,-0.499 -0.238,-0.968 -0.642,-1.261c-0.403,-0.294 -0.922,-0.377 -1.397,-0.224c-2.574,0.83 -6.997,2.257 -9.742,3.143Z" style="fill:#6f6f6e;"/><path d="M92.92,36.24c0.936,-0.655 1.494,-1.726 1.494,-2.868c0,-2.309 0,-6.268 0,-8.589c0,-1.158 -0.565,-2.243 -1.514,-2.906c-0.747,-0.523 -1.669,-1.168 -2.519,-1.763c-0.488,-0.342 -1.127,-0.383 -1.656,-0.108c-0.529,0.276 -0.861,0.823 -0.861,1.419c0,4.096 0,11.301 0,15.357c0,0.582 0.324,1.115 0.839,1.384c0.516,0.268 1.139,0.228 1.615,-0.106c0.875,-0.612 1.833,-1.282 2.602,-1.82Z" style="fill:#6f6f6e;"/><rect x="0" y="0" width="119.659" height="119.659" style="fill:none;"/><path d="M19.138,27.222l2.307,0l1.131,2.806l-3.438,0c-0.513,0 -0.93,-0.417 -0.93,-0.931l0,-0.945c0,-0.513 0.417,-0.93 0.93,-0.93Zm10.865,2.806l-6.405,0l-1.131,-2.806l6.405,0l1.131,2.806Zm12.547,-2.806c0.513,0 0.93,0.417 0.93,0.93l0,0.945c0,0.514 -0.417,0.931 -0.93,0.931l-11.525,0l-1.131,-2.806l12.656,0Z" style="fill:#6f6f6e;"/></g></svg>