<?xml version="1.0" encoding="UTF-8" standalone="no"?><!DOCTYPE svg PUBLIC "-//W3C//DTD SVG 1.1//EN" "http://www.w3.org/Graphics/SVG/1.1/DTD/svg11.dtd"><svg width="100%" height="100%" viewBox="0 0 120 120" version="1.1" xmlns="http://www.w3.org/2000/svg" xmlns:xlink="http://www.w3.org/1999/xlink" xml:space="preserve" xmlns:serif="http://www.serif.com/" style="fill-rule:evenodd;clip-rule:evenodd;stroke-linecap:round;stroke-linejoin:round;stroke-miterlimit:4.5;"><g><rect x="0" y="0" width="119.659" height="119.659" style="fill:none;"/><path d="M33.654,40.304c0,-0.655 -0.532,-1.187 -1.187,-1.187l-18.978,0c-0.655,0 -1.186,0.532 -1.186,1.187l0,10.001c0,0.655 0.531,1.187 1.186,1.187l18.978,0c0.655,0 1.187,-0.532 1.187,-1.187l0,-10.001Z" style="fill:#808080;"/><path d="M33.654,54.829c0,-0.655 -0.532,-1.187 -1.187,-1.187l-18.978,0c-0.655,0 -1.186,0.532 -1.186,1.187l0,10.001c0,0.655 0.531,1.187 1.186,1.187l18.978,0c0.655,0 1.187,-0.532 1.187,-1.187l0,-10.001Z" style="fill:#808080;"/><path d="M33.654,69.354c0,-0.655 -0.532,-1.187 -1.187,-1.187l-18.978,0c-0.655,0 -1.186,0.532 -1.186,1.187l0,10.001c0,0.655 0.531,1.187 1.186,1.187l18.978,0c0.655,0 1.187,-0.532 1.187,-1.187l0,-10.001Z" style="fill:#808080;"/><path d="M102.699,35.549c2.571,0 4.658,2.087 4.658,4.657l0,39.247c0,2.57 -2.087,4.657 -4.658,4.657l-66.313,0c-2.57,0 -4.657,-2.087 -4.657,-4.657l0,-39.247c0,-2.57 2.087,-4.657 4.657,-4.657l66.313,0Zm-17.735,44.733c2.884,0 5.226,-2.342 5.226,-5.226l0,-30.713c0,-2.884 -2.342,-5.226 -5.226,-5.226l-1.284,0c-2.884,0 -5.225,2.342 -5.225,5.226l0,30.713c0,2.884 2.341,5.226 5.225,5.226l1.284,0Zm-15.927,0c4.119,0 7.463,-3.344 7.463,-7.463l0,-26.239c0,-4.119 -3.344,-7.463 -7.463,-7.463l-14.926,0c-4.119,0 -7.462,3.344 -7.462,7.463l0,26.239c0,4.119 3.344,7.463 7.462,7.463l14.926,0Zm-1.181,-38.749c3.468,0.001 6.283,2.815 6.283,6.283l0,23.767c0,3.467 -2.815,6.282 -6.283,6.282l-12.564,0c-3.467,0 -6.282,-2.815 -6.282,-6.282l0,-23.767c0,-3.468 2.815,-6.282 6.282,-6.283l12.564,0Zm16.848,0c1.841,0 3.335,1.495 3.335,3.335l0,29.663c0,1.84 -1.494,3.334 -3.335,3.334l-0.819,0c-1.841,0 -3.335,-1.494 -3.335,-3.334l0,-29.663c0,-1.84 1.494,-3.335 3.335,-3.335l0.819,0Z" style="fill:#808080;stroke:#808080;stroke-width:0.55px;"/></g></svg>