<?xml version="1.0" encoding="UTF-8" standalone="no"?><!DOCTYPE svg PUBLIC "-//W3C//DTD SVG 1.1//EN" "http://www.w3.org/Graphics/SVG/1.1/DTD/svg11.dtd"><svg width="100%" height="100%" viewBox="0 0 120 120" version="1.1" xmlns="http://www.w3.org/2000/svg" xmlns:xlink="http://www.w3.org/1999/xlink" xml:space="preserve" xmlns:serif="http://www.serif.com/" style="fill-rule:evenodd;clip-rule:evenodd;stroke-linejoin:round;stroke-miterlimit:1.41421;"><g><path d="M38.961,46.292l-2.891,0l0,31.231c0,0.399 0.324,0.723 0.723,0.723l1.445,0c0.399,0 0.723,-0.324 0.723,-0.723l0,-31.231Z" style="fill:#6f6f6e;"/><path d="M42.443,46.292l-2.89,0l0,31.231c0,0.399 0.323,0.723 0.722,0.723l1.445,0c0.399,0 0.723,-0.324 0.723,-0.723l0,-31.231Z" style="fill:#6f6f6e;"/><path d="M45.925,46.292l-2.89,0l0,31.231c0,0.399 0.324,0.723 0.722,0.723l1.445,0c0.399,0 0.723,-0.324 0.723,-0.723l0,-31.231Z" style="fill:#6f6f6e;"/><path d="M49.407,46.292l-2.89,0l0,31.231c0,0.399 0.324,0.723 0.722,0.723l1.445,0c0.399,0 0.723,-0.324 0.723,-0.723l0,-31.231Z" style="fill:#6f6f6e;"/><path d="M52.889,46.292l-2.89,0l0,31.231c0,0.399 0.324,0.723 0.723,0.723l1.445,0c0.398,0 0.722,-0.324 0.722,-0.723l0,-31.231Z" style="fill:#6f6f6e;"/><path d="M56.371,46.292l-2.89,0l0,31.231c0,0.399 0.324,0.723 0.723,0.723l1.445,0c0.399,0 0.722,-0.324 0.722,-0.723l0,-31.231Z" style="fill:#6f6f6e;"/><path d="M59.853,46.292l-2.89,0l0,31.231c0,0.399 0.324,0.723 0.723,0.723l1.445,0c0.399,0 0.722,-0.324 0.722,-0.723l0,-31.231Z" style="fill:#6f6f6e;"/><path d="M63.336,46.292l-2.89,0l0,31.231c0,0.399 0.323,0.723 0.722,0.723l1.445,0c0.399,0 0.723,-0.324 0.723,-0.723l0,-31.231Z" style="fill:#6f6f6e;"/><path d="M66.818,46.292l-2.89,0l0,31.231c0,0.399 0.323,0.723 0.722,0.723l1.445,0c0.399,0 0.723,-0.324 0.723,-0.723l0,-31.231Z" style="fill:#6f6f6e;"/><path d="M70.3,46.292l-2.89,0l0,31.231c0,0.399 0.324,0.723 0.722,0.723l1.445,0c0.399,0 0.723,-0.324 0.723,-0.723l0,-31.231Z" style="fill:#6f6f6e;"/><path d="M73.782,46.292l-2.89,0l0,31.231c0,0.399 0.324,0.723 0.723,0.723l1.445,0c0.398,0 0.722,-0.324 0.722,-0.723l0,-31.231Z" style="fill:#6f6f6e;"/><path d="M77.264,46.292l-2.89,0l0,31.231c0,0.399 0.324,0.723 0.723,0.723l1.445,0c0.398,0 0.722,-0.324 0.722,-0.723l0,-31.231Z" style="fill:#6f6f6e;"/><path d="M80.746,46.292l-2.89,0l0,31.231c0,0.399 0.324,0.723 0.723,0.723l1.445,0c0.399,0 0.722,-0.324 0.722,-0.723l0,-31.231Z" style="fill:#6f6f6e;"/><rect x="0" y="0" width="119.659" height="119.659" style="fill:none;"/><path d="M23.311,40.786c-1.657,0 -3,1.343 -3,3c0,9.79 0,40.742 0,50.532c0,1.657 1.343,3 3,3c12.648,0 61.551,0 74.199,0c1.657,0 3,-1.343 3,-3c0,-9.79 0,-40.742 0,-50.532c0,-1.657 -1.343,-3 -3,-3c-12.648,0 -61.551,0 -74.199,0Zm62.991,3.657l-57.656,0c-0.623,0.001 -1.128,0.506 -1.128,1.128l0,45.878c0,0.622 0.505,1.127 1.128,1.127l57.656,0c0.622,0 1.127,-0.505 1.127,-1.127l0,-45.878c0,-0.622 -0.504,-1.127 -1.127,-1.128Zm7.501,18.619c3.306,0 5.99,2.684 5.99,5.99c0,3.306 -2.684,5.989 -5.99,5.989c-3.305,0 -5.989,-2.683 -5.989,-5.989c0,-3.306 2.684,-5.99 5.989,-5.99Zm0,2.437c1.962,0 3.554,1.592 3.554,3.553c0,1.961 -1.592,3.553 -3.554,3.553c-1.961,0 -3.553,-1.592 -3.553,-3.553c0,-1.961 1.592,-3.553 3.553,-3.553Zm-71.013,3.553c0,-0.669 0.542,-1.211 1.211,-1.211c0.668,0 1.211,0.542 1.211,1.211c0,0.668 -0.543,1.211 -1.211,1.211c-0.669,0 -1.211,-0.543 -1.211,-1.211Z" style="fill:#6f6f6e;"/><path d="M75.05,27.608c0,0.538 0.437,0.975 0.975,0.975l4.973,0l-0.604,11.157l-43.91,0c0,0 -0.723,-12.019 -0.968,-16.078c-0.02,-0.343 0.102,-0.679 0.337,-0.929c0.235,-0.25 0.564,-0.392 0.907,-0.392l38.293,0c-0.002,0.026 -0.003,0.052 -0.003,0.079l0,5.188Zm5.088,-0.974l-3.138,0l0,-3.276l3.138,3.276Z" style="fill:#6f6f6e;"/></g></svg>