<?xml version="1.0" encoding="UTF-8" standalone="no"?><!DOCTYPE svg PUBLIC "-//W3C//DTD SVG 1.1//EN" "http://www.w3.org/Graphics/SVG/1.1/DTD/svg11.dtd"><svg width="100%" height="100%" viewBox="0 0 120 120" version="1.1" xmlns="http://www.w3.org/2000/svg" xmlns:xlink="http://www.w3.org/1999/xlink" xml:space="preserve" xmlns:serif="http://www.serif.com/" style="fill-rule:evenodd;clip-rule:evenodd;stroke-linecap:round;stroke-linejoin:round;stroke-miterlimit:4.5;"><g><rect x="0" y="0" width="119.659" height="119.659" style="fill:none;"/><g><circle cx="51.964" cy="84.605" r="2.227" style="fill:#6f6f6e;"/><circle cx="56.509" cy="96.288" r="1.436" style="fill:#6f6f6e;"/><circle cx="61.193" cy="100.808" r="0.718" style="fill:#6f6f6e;"/><circle cx="63.551" cy="95.401" r="0.718" style="fill:#6f6f6e;"/><circle cx="59.039" cy="89.787" r="1.436" style="fill:#6f6f6e;"/><circle cx="66.776" cy="86.427" r="1.924" style="fill:#6f6f6e;"/><path d="M69.922,55.609c0,0 0,11.773 0,16.956c0,1.325 -1.075,2.4 -2.4,2.4c-3.884,0 -11.501,0 -15.385,0c-1.325,0 -2.4,-1.075 -2.4,-2.4c0,-5.183 0,-16.956 0,-16.956c0,0 -18.67,-24.317 -25.931,-33.775c-0.534,-0.695 -0.626,-1.632 -0.239,-2.418c0.387,-0.786 1.187,-1.283 2.063,-1.283c13.819,0 54.436,0 68.336,0c0.888,0 1.698,0.504 2.091,1.3c0.392,0.797 0.299,1.747 -0.242,2.451c-7.289,9.493 -25.893,33.725 -25.893,33.725Z" style="fill:#6f6f6e;stroke:#fff;stroke-width:2.3px;"/></g></g></svg>